# xmcd
#
# Track frame offsets: 
#        150
#        9392
#        18565
#        29045
#        42835
#        53800
#        66422
#        79680
#        94140
#        104027
#
# Disc length: 1567 seconds
#
# Revision: 0
# Processed by: cddbd v1.5.1PL2 Copyright (c) Steve Scherf et al.
# Submitted via: ExactAudioCopy v0.95a5
#
DISCID=83061d0a
DTITLE=Various Artist - Country 70's Hits
DYEAR=2002
DGENRE=Country
TTITLE0=Dottie West/Country Sunshine
TTITLE1=Charley Pride/Kiss An Angel Good Mornin
TTITLE2=Jerry Reed/When You're Hot,You're Hot
TTITLE3=Dolly Parton/Coat Of Many Colors
TTITLE4=Charlie Rich/She Called Me Baby
TTITLE5=Gary Stewart/She's Actin' Single(I'm Drinkin' Doubles)
TTITLE6=Waylon Jennings/Amanda
TTITLE7=Willie Nelson/Sweet Memories
TTITLE8=Connie Smith/Love Is The Look You're Looking For
TTITLE9=Porter Wagoner&Dolly Parton/Daddy Was An Old Time Preacher Man
EXTD=
EXTT0=
EXTT1=
EXTT2=
EXTT3=
EXTT4=
EXTT5=
EXTT6=
EXTT7=
EXTT8=
EXTT9=
PLAYORDER=
